<svg width="11" height="16" viewBox="0 0 11 16" fill="none" xmlns="http://www.w3.org/2000/svg">
<path fill-rule="evenodd" clip-rule="evenodd" d="M2.5986 0.373144L9.84345 7.1774C10.1042 7.41882 10.2346 7.68705 10.2346 8C10.2252 8.31294 10.1042 8.59906 9.84345 8.83153L2.59859 15.6268C2.39373 15.8236 2.13299 15.9308 1.82568 15.9308C1.21108 15.9308 0.717539 15.4659 0.717539 14.8758C0.717539 14.5897 0.847909 14.3125 1.06209 14.1068L7.5806 8.00894L1.06209 1.89315C0.84791 1.6875 0.71754 1.41927 0.71754 1.12421C0.71754 0.534086 1.21108 0.0691435 1.82569 0.0691435C2.13299 0.0691435 2.39373 0.176438 2.5986 0.373144Z" fill="white"/>
</svg>
