<svg width="12" height="20" viewBox="0 0 12 20" fill="none" xmlns="http://www.w3.org/2000/svg">
<path fill-rule="evenodd" clip-rule="evenodd" d="M8.91498 19.6166L0.456621 11.0371C0.152207 10.7327 0 10.3945 0 9.99991C0.0108719 9.60532 0.152207 9.24455 0.456621 8.95143L8.91498 0.383223C9.15416 0.135196 9.45858 -9.15527e-05 9.81735 -9.15527e-05C10.5349 -9.15527e-05 11.1111 0.586154 11.1111 1.33024C11.1111 1.691 10.9589 2.04049 10.7088 2.2998L3.0985 9.98863L10.7088 17.7C10.9589 17.9593 11.1111 18.2975 11.1111 18.6696C11.1111 19.4137 10.5349 19.9999 9.81735 19.9999C9.45858 19.9999 9.15416 19.8646 8.91498 19.6166Z" fill="white"/>
</svg>
