<svg width="16" height="9" viewBox="0 0 16 9" fill="none" xmlns="http://www.w3.org/2000/svg">
<path fill-rule="evenodd" clip-rule="evenodd" d="M15.2176 2.47135L8.78303 8.56137C8.55473 8.78055 8.30107 8.89014 8.00513 8.89014C7.70919 8.88231 7.43861 8.78055 7.21877 8.56137L0.792613 2.47135C0.606592 2.29914 0.505127 2.07996 0.505127 1.82164C0.505127 1.30501 0.944811 0.890137 1.50287 0.890137C1.77345 0.890137 2.03557 0.999726 2.23004 1.17977L7.99667 6.65922L13.7802 1.17976C13.9747 0.999726 14.2284 0.890137 14.5074 0.890137C15.0654 0.890137 15.5051 1.30501 15.5051 1.82164C15.5051 2.07996 15.4037 2.29914 15.2176 2.47135Z" fill="white"/>
</svg>
