<svg width="16" height="16" viewBox="0 0 16 16" fill="none" xmlns="http://www.w3.org/2000/svg">
<path fill-rule="evenodd" clip-rule="evenodd" d="M8 8.4375C6.19072 8.4375 4.71875 6.96553 4.71875 5.15625C4.71875 3.34697 6.19072 1.875 8 1.875C9.80928 1.875 11.2812 3.34697 11.2812 5.15625C11.2812 6.96553 9.80928 8.4375 8 8.4375ZM8 2.8125C6.70766 2.8125 5.65625 3.86391 5.65625 5.15625C5.65625 6.44859 6.70766 7.5 8 7.5C9.29234 7.5 10.3438 6.44859 10.3438 5.15625C10.3438 3.86391 9.29234 2.8125 8 2.8125Z" fill="white"/>
<path fill-rule="evenodd" clip-rule="evenodd" d="M5.18746 9.375C4.24843 9.375 3.35259 9.77869 2.72968 10.4826L2.50746 10.7337L2.67327 11.0251C3.76134 12.9372 5.8024 14.125 7.99996 14.125C10.1975 14.125 12.2386 12.9372 13.3266 11.0251L13.4924 10.7337L13.2702 10.4826C12.6473 9.77869 11.7515 9.375 10.8125 9.375H5.18746ZM12.3244 10.8658C11.3675 12.3063 9.74171 13.1875 7.99996 13.1875C6.25821 13.1875 4.63243 12.3063 3.67549 10.8658C4.09587 10.511 4.63109 10.3125 5.18746 10.3125H10.8125C11.3688 10.3125 11.9041 10.511 12.3244 10.8658Z" fill="white"/>
<path fill-rule="evenodd" clip-rule="evenodd" d="M8 0C12.4112 0 16 3.58878 16 8C16 12.4112 12.4112 16 8 16C3.58878 16 0 12.4112 0 8C0 3.58878 3.58878 0 8 0ZM8 15.0625C11.8943 15.0625 15.0625 11.8943 15.0625 8C15.0625 4.10572 11.8943 0.9375 8 0.9375C4.10572 0.9375 0.9375 4.10572 0.9375 8C0.9375 11.8943 4.10572 15.0625 8 15.0625Z" fill="white"/>
</svg>
