<svg width="16" height="16" viewBox="0 0 16 16" fill="none" xmlns="http://www.w3.org/2000/svg">
<path d="M1.48956 3.30753C2.90469 1.59883 5.10858 0.499863 7.58312 0.499863C11.8536 0.499863 15.3083 3.75843 15.3141 7.79103C15.3199 11.8291 11.8575 15.1041 7.58312 15.1041C5.16271 15.1041 3.00328 14.0544 1.58622 12.4096C1.53209 12.3457 1.54369 12.2526 1.61135 12.2015L2.58764 11.4822C2.65337 11.433 2.74809 11.4439 2.80222 11.5042C2.92982 11.652 3.06708 11.7944 3.21207 11.9313C3.77535 12.4651 4.44309 12.8904 5.17817 13.1836C5.93794 13.4903 6.74796 13.6437 7.58312 13.6437C8.41828 13.6437 9.22831 13.4903 9.99 13.1855C10.7266 12.8916 11.3877 12.4699 11.9561 11.9332C12.5245 11.3964 12.9711 10.7721 13.2823 10.0766C13.6052 9.35551 13.7676 8.59061 13.7676 7.80198C13.7676 7.01335 13.6052 6.24846 13.2823 5.5292C12.9711 4.83367 12.5245 4.20934 11.9561 3.67263C11.3877 3.13593 10.7266 2.71423 9.99 2.42032C9.22831 2.11546 8.41828 1.96211 7.58312 1.96211C6.74796 1.96211 5.93794 2.11546 5.17624 2.42032C4.44116 2.71357 3.77342 3.13888 3.21014 3.67263C3.03035 3.84241 2.86216 4.02131 2.7075 4.20751L3.71471 4.9505C3.73774 4.96732 3.75527 4.98994 3.76529 5.01575C3.77531 5.04156 3.77741 5.06952 3.77136 5.09641C3.7653 5.1233 3.75132 5.14803 3.73104 5.16775C3.71076 5.18747 3.685 5.20139 3.65672 5.2079L0.521004 5.93081C0.424343 5.95272 0.329615 5.88335 0.329615 5.79025L0.314148 2.74161C0.314148 2.6193 0.463008 2.54993 0.563536 2.6266L1.48956 3.30753Z" fill="white"/>
</svg>
