<svg width="18" height="20" viewBox="0 0 18 20" fill="none" xmlns="http://www.w3.org/2000/svg">
<path d="M17.6573 17.4935L13.3161 12.9785C14.4323 11.6517 15.0439 9.98221 15.0439 8.24423C15.0439 4.18359 11.7402 0.879883 7.67953 0.879883C3.6189 0.879883 0.315186 4.18359 0.315186 8.24423C0.315186 12.3049 3.6189 15.6086 7.67953 15.6086C9.20395 15.6086 10.6566 15.1488 11.8987 14.2759L16.2728 18.8252C16.4556 19.0151 16.7015 19.1198 16.965 19.1198C17.2144 19.1198 17.4511 19.0247 17.6307 18.8518C18.0123 18.4845 18.0245 17.8755 17.6573 17.4935ZM7.67953 2.80102C10.681 2.80102 13.1227 5.24278 13.1227 8.24423C13.1227 11.2457 10.681 13.6874 7.67953 13.6874C4.67808 13.6874 2.23632 11.2457 2.23632 8.24423C2.23632 5.24278 4.67808 2.80102 7.67953 2.80102Z" fill="#FFD037"/>
</svg>
